<svg width="72" height="72" viewBox="0 0 72 72" fill="none" xmlns="http://www.w3.org/2000/svg">
<path d="M11.8 7.29991C11.5 6.89991 10.9 6.69991 10.4 6.99991C4.2 10.4999 0 17.1999 0 24.7999C0 27.8999 0.7 30.8999 1.9 33.4999C2.4 34.4999 7 43.8999 7 61.6999C7 62.6999 11.2 62.6999 11.2 61.6999C11.2 61.6999 11.3 51.9999 11.3 45.4999C11.3 38.9999 13.2 37.0999 14.8 37.0999C16.4 37.0999 23.1 50.2999 26.8 54.7999C30.5 59.2999 35.6 63.5999 52.8 63.5999C70 63.5999 71.7 59.6999 71.7 58.1999C71.7 56.6999 69.5 52.5999 53.7 48.3999C36.9 43.9999 32.7 40.1999 23.5 25.5999C16.4 14.3999 13 9.09991 11.8 7.29991Z" fill="#FF473E"/>
<path d="M25.2 32.1999L12.6 8.3999C13.8 10.1999 16.7 14.3999 23.7 25.5999C32.3 39.1999 36.5 43.3999 50.8 47.4999C55.6 48.8999 54.8 51.0999 44.6 50.3999C35.4 49.7999 28.8 39.0999 25.2 32.1999Z" fill="#D32A2A"/>
<path d="M8.99998 60.9C8.29998 60.9 7.69998 60.8 7.09998 60.7V61.7999C7.09998 62.7999 11.3 62.7999 11.3 61.7999V60.7C10.5 60.8 9.79998 60.9 8.99998 60.9Z" fill="#D32A2A"/>
</svg>
