<svg width="102" height="103" viewBox="0 0 102 103" fill="none" xmlns="http://www.w3.org/2000/svg">
<g clip-path="url(#clip0_11_124)" filter="url(#filter0_d_11_124)">
<path d="M10.9494 31.0566C10.9494 31.0566 11.682 28.6109 14.6422 24.3471C17.6023 20.0833 25.3165 13.6458 26.7171 12.932C28.1151 12.2183 29.3298 11.8573 30.5096 13.2768C31.4038 14.3515 36.9497 24.5437 42.2506 28.5247C48.5399 33.2464 55.4137 32.6161 59.5536 31.5468C60.8643 31.2229 62.1399 30.7709 63.3622 30.1974C63.3622 30.1974 73.25 52.5507 75.0116 57.0273C75.5934 58.5087 76.124 59.9632 76.6735 61.1968C78.5616 65.4364 81.6295 68.9676 85.1472 72.1324C88.6676 75.2973 91.9052 77.304 92.7833 78.0339C93.6614 78.7638 102.413 84.0754 97.3407 91.9889C97.3407 91.9889 77.8128 89.1688 58.5812 76.0784C43.67 65.9266 42.8808 57.6468 25.0795 43.8426C13.2012 34.6362 10.9494 31.0566 10.9494 31.0566Z" fill="#C36446"/>
<path d="M43.8369 67.5323C46.6004 70.7241 51.3087 76.367 58.3144 80.8274C77.5999 93.1098 97.9816 93.2848 97.9816 93.2848L98.3264 92.1617C98.4691 91.658 98.1621 91.3913 97.7742 91.3051C95.9265 90.8903 89.5509 89.4385 86.2299 88.1753C79.2887 85.533 71.8008 83.7795 61.6194 76.7117C51.4379 69.644 46.5546 63.1608 42.0295 58.2559C37.5045 53.351 28.0126 43.9534 21.163 39.2021C15.8757 35.5335 12.7324 32.1074 11.5742 30.7364C11.3048 30.4186 10.9951 30.5694 10.758 30.9115L8.4093 34.3026C8.4093 34.3053 35.2339 57.5933 43.8369 67.5323Z" fill="#803F29"/>
<path d="M61.6706 65.6279L60.849 64.4778C47.6805 46.0677 35.3416 48.9471 32.9929 49.712C32.5996 49.8413 31.1667 50.2804 31.1667 50.2804L30.0085 46.4987C30.0112 46.4987 31.3795 46.0785 31.7593 45.9546C34.5093 45.0577 48.6744 41.6612 63.1358 60.9143C64.6199 60.2194 67.2892 58.7326 70.4244 55.9098C69.611 53.6472 67.7552 48.6158 65.8158 44.3654C63.2166 38.6633 59.5454 31.5444 59.5454 31.5444C61.148 31.1242 63.354 30.1949 63.354 30.1949C63.354 30.1949 66.7828 36.9475 69.4144 42.7251C72.0702 48.5511 74.4889 55.5354 74.5913 55.829L75.0007 57.0249L74.0876 57.9003C68.0919 63.6509 63.2247 65.1566 63.02 65.2185L61.6706 65.6279Z" fill="#803F29"/>
<path d="M27.2423 60.5478C28.5622 60.3808 31.1156 58.665 32.0449 58.8266C32.9741 58.9909 39.1934 65.6331 42.0404 68.8114C44.8875 71.9898 49.8031 77.4495 56.7065 82.2385C63.61 87.0302 73.953 91.1998 80.4335 93.6509C86.9141 96.102 93.7637 97.4676 95.1643 97.5349C96.5676 97.6022 96.4841 97.1363 96.74 96.6353C96.9959 96.1343 97.979 93.2819 97.979 93.2819C97.979 93.2819 91.924 92.4765 84.9128 89.7857C77.9017 87.0949 70.3195 85.2741 60.0141 78.1228C49.7088 70.9716 44.7528 64.4372 40.1658 59.4865C35.5787 54.5386 25.9575 45.0521 19.0272 40.2415C13.6806 36.5325 10.8982 33.3731 9.65919 32.0452C9.21476 31.5711 8.63566 31.8782 8.28551 32.3684L3.57458 38.5823C3.16247 39.1776 2.70997 40.8691 4.05402 42.2832C5.39808 43.7026 25.9225 60.7148 27.2423 60.5478ZM58.4815 40.3654C57.9534 40.3654 57.4412 40.1849 57.0297 39.8539C56.6183 39.5229 56.3322 39.0612 56.2191 38.5453C56.1059 38.0295 56.1724 37.4905 56.4075 37.0176C56.6427 36.5448 57.0323 36.1665 57.5119 35.9454L63.9359 32.9933C64.4912 32.7531 65.1185 32.7398 65.6835 32.9561C66.2485 33.1724 66.7065 33.6012 66.9595 34.1508C67.2125 34.7004 67.2404 35.3272 67.0373 35.8971C66.8341 36.467 66.4161 36.9348 65.8725 37.2005L59.4485 40.1526C59.1455 40.293 58.8155 40.3656 58.4815 40.3654ZM62.4518 48.1819C61.9257 48.1822 61.4153 48.0034 61.0044 47.6749C60.5935 47.3465 60.3067 46.888 60.191 46.3749C60.0753 45.8617 60.1377 45.3245 60.368 44.8516C60.5982 44.3786 60.9826 43.9981 61.4579 43.7727L67.8441 40.7506C68.3981 40.4948 69.0307 40.4679 69.6044 40.6759C70.1781 40.8838 70.6466 41.3097 70.9081 41.861C71.1695 42.4124 71.2029 43.0446 71.0009 43.6205C70.7989 44.1963 70.3779 44.6691 69.8292 44.9363L63.443 47.9584C63.1329 48.1046 62.7945 48.181 62.4518 48.1819ZM66.2146 56.3675C65.6916 56.3681 65.1838 56.1917 64.7738 55.867C64.3638 55.5423 64.0758 55.0885 63.9565 54.5793C63.8372 54.0701 63.8938 53.5355 64.117 53.0626C64.3401 52.5896 64.7168 52.2061 65.1857 51.9744L71.1787 49.0088C71.4521 48.8656 71.7514 48.7784 72.0589 48.7524C72.3665 48.7265 72.6761 48.7622 72.9697 48.8576C73.2632 48.953 73.5348 49.1061 73.7683 49.3079C74.0018 49.5097 74.1927 49.7562 74.3297 50.0328C74.4666 50.3094 74.5469 50.6106 74.5658 50.9187C74.5847 51.2268 74.5419 51.5355 74.4398 51.8268C74.3377 52.1181 74.1785 52.386 73.9714 52.6149C73.7643 52.8438 73.5135 53.0289 73.2338 53.1595L67.2408 56.125C66.9225 56.2854 66.5709 56.3684 66.2146 56.3675Z" fill="#292F33"/>
</g>
<defs>
<filter id="filter0_d_11_124" x="0.0690498" y="0.916382" width="101.639" height="101.639" filterUnits="userSpaceOnUse" color-interpolation-filters="sRGB">
<feFlood flood-opacity="0" result="BackgroundImageFix"/>
<feColorMatrix in="SourceAlpha" type="matrix" values="0 0 0 0 0 0 0 0 0 0 0 0 0 0 0 0 0 0 127 0" result="hardAlpha"/>
<feOffset dy="2.33653"/>
<feGaussianBlur stdDeviation="1.16826"/>
<feComposite in2="hardAlpha" operator="out"/>
<feColorMatrix type="matrix" values="0 0 0 0 0 0 0 0 0 0 0 0 0 0 0 0 0 0 0.25 0"/>
<feBlend mode="normal" in2="BackgroundImageFix" result="effect1_dropShadow_11_124"/>
<feBlend mode="normal" in="SourceGraphic" in2="effect1_dropShadow_11_124" result="shape"/>
</filter>
<clipPath id="clip0_11_124">
<rect width="96.9659" height="96.9659" fill="white" transform="translate(2.40558 0.916382)"/>
</clipPath>
</defs>
</svg>
