<?xml version="1.0" encoding="UTF-8"?>
<svg xmlns="http://www.w3.org/2000/svg" xmlns:xlink="http://www.w3.org/1999/xlink" viewBox="0 0 50 50" width="50px" height="50px">
<g id="surface58989647">
<path style=" stroke:none;fill-rule:nonzero;fill:rgb(5.098039%,75.686276%,26.274511%);fill-opacity:1;" d="M 25 50 C 11.191406 50 0 38.808594 0 25 C 0 11.191406 11.191406 0 25 0 C 38.808594 0 50 11.191406 50 25 C 50 38.808594 38.808594 50 25 50 Z M 25 50 "/>
<path style=" stroke:none;fill-rule:nonzero;fill:rgb(100%,100%,100%);fill-opacity:1;" d="M 25 9.359375 C 16.375 9.359375 9.359375 16.375 9.359375 25 C 9.359375 27.691406 10.054688 30.339844 11.375 32.675781 L 9.386719 39.777344 C 9.320312 40.007812 9.382812 40.261719 9.550781 40.433594 C 9.679688 40.566406 9.859375 40.640625 10.039062 40.640625 C 10.09375 40.640625 10.148438 40.632812 10.203125 40.621094 L 17.613281 38.785156 C 19.875 40 22.421875 40.640625 25 40.640625 C 33.625 40.640625 40.640625 33.625 40.640625 25 C 40.640625 16.375 33.625 9.359375 25 9.359375 Z M 32.867188 30.519531 C 32.53125 31.445312 30.929688 32.289062 30.15625 32.402344 C 29.464844 32.503906 28.589844 32.546875 27.628906 32.246094 C 27.042969 32.0625 26.296875 31.820312 25.339844 31.410156 C 21.3125 29.691406 18.679688 25.6875 18.480469 25.425781 C 18.277344 25.160156 16.839844 23.273438 16.839844 21.324219 C 16.839844 19.371094 17.878906 18.414062 18.246094 18.015625 C 18.613281 17.621094 19.046875 17.519531 19.316406 17.519531 C 19.585938 17.519531 19.851562 17.523438 20.085938 17.535156 C 20.332031 17.546875 20.664062 17.441406 20.988281 18.214844 C 21.324219 19.007812 22.128906 20.960938 22.226562 21.160156 C 22.328125 21.359375 22.394531 21.589844 22.261719 21.855469 C 22.128906 22.117188 22.0625 22.285156 21.859375 22.515625 C 21.660156 22.746094 21.4375 23.03125 21.257812 23.210938 C 21.054688 23.410156 20.847656 23.621094 21.082031 24.019531 C 21.316406 24.417969 22.121094 25.714844 23.316406 26.765625 C 24.847656 28.117188 26.140625 28.535156 26.542969 28.734375 C 26.945312 28.933594 27.179688 28.898438 27.414062 28.636719 C 27.648438 28.371094 28.417969 27.476562 28.683594 27.082031 C 28.953125 26.683594 29.21875 26.75 29.589844 26.882812 C 29.957031 27.015625 31.929688 27.972656 32.332031 28.171875 C 32.734375 28.371094 33 28.46875 33.101562 28.632812 C 33.203125 28.800781 33.203125 29.59375 32.867188 30.519531 Z M 32.867188 30.519531 "/>
</g>
</svg>
